<svg xmlns="http://www.w3.org/2000/svg" viewBox="0 -5 135 54" width="135" height="54">
  <style>
    .no { fill: #007aff; }
    .drift { fill: #c9d1d9; }
    .cursor { fill: #007aff; }
    
    @media (prefers-color-scheme: light) {
      .drift { fill: #24292f; }
      .no { fill: #007aff; }
      .cursor { fill: #007aff; }
    }
    @media (prefers-color-scheme: dark) {
      .drift { fill: #c9d1d9; }
      .no { fill: #0a84ff; }
      .cursor { fill: #0a84ff; }
    }
  </style>
  <path class="no" d="M6.37 34.92L2.63 34.92L2.63 16.56L6.19 16.56L6.19 20.88L6.37 20.88L6.37 34.92ZM19.37 34.92L15.66 34.92L15.66 23.11Q15.66 21.20 14.71 20.27Q13.75 19.33 11.88 19.33L11.88 19.33Q10.26 19.33 9.02 20.05Q7.78 20.77 7.07 22.03Q6.37 23.29 6.37 25.02L6.37 25.02L5.90 20.63Q6.80 18.58 8.68 17.39Q10.55 16.20 13.03 16.20L13.03 16.20Q15.98 16.20 17.68 17.86Q19.37 19.51 19.37 22.25L19.37 22.25L19.37 34.92ZM32.44 35.28L32.44 35.28Q29.63 35.28 27.50 34.04Q25.38 32.80 24.19 30.62Q23.00 28.44 23.00 25.67L23.00 25.67Q23.00 22.86 24.21 20.74Q25.42 18.61 27.52 17.41Q29.63 16.20 32.44 16.20L32.44 16.20Q35.28 16.20 37.40 17.41Q39.53 18.61 40.70 20.74Q41.87 22.86 41.87 25.67L41.87 25.67Q41.87 28.44 40.70 30.62Q39.53 32.80 37.40 34.04Q35.28 35.28 32.44 35.28ZM32.44 32.22L32.44 32.22Q34.13 32.22 35.37 31.39Q36.61 30.56 37.33 29.09Q38.05 27.61 38.05 25.63L38.05 25.63Q38.05 22.68 36.49 20.97Q34.92 19.26 32.44 19.26L32.44 19.26Q29.99 19.26 28.42 20.99Q26.86 22.72 26.86 25.63L26.86 25.63Q26.86 27.61 27.56 29.09Q28.26 30.56 29.54 31.39Q30.82 32.22 32.44 32.22Z"/>
  <path class="drift" d="M63.54 34.92L58.25 34.92L58.25 30.85L58.61 30.92Q58.25 32.90 56.47 34.09Q54.68 35.28 52.20 35.28L52.20 35.28Q49.68 35.28 47.83 34.11Q45.97 32.94 44.96 30.82Q43.96 28.69 43.96 25.81L43.96 25.81Q43.96 22.90 45.00 20.74Q46.04 18.58 47.93 17.39Q49.82 16.20 52.34 16.20L52.34 16.20Q54.97 16.20 56.61 17.42Q58.25 18.65 58.54 20.77L58.54 20.77L58.14 20.81L58.14 9L63.54 9L63.54 34.92ZM53.93 30.96L53.93 30.96Q55.84 30.96 57.02 29.61Q58.21 28.26 58.21 25.74L58.21 25.74Q58.21 23.22 57.01 21.87Q55.80 20.52 53.86 20.52L53.86 20.52Q51.98 20.52 50.78 21.89Q49.57 23.26 49.57 25.78L49.57 25.78Q49.57 28.30 50.78 29.63Q51.98 30.96 53.93 30.96ZM73.26 34.92L67.86 34.92L67.86 16.56L73.15 16.56L73.15 20.88L73.26 20.88L73.26 34.92ZM73.26 25.34L73.26 25.34L72.79 20.99Q73.44 18.65 74.92 17.42Q76.39 16.20 78.59 16.20L78.59 16.20Q79.27 16.20 79.60 16.34L79.60 16.34L79.60 21.38Q79.42 21.31 79.09 21.29Q78.77 21.28 78.30 21.28L78.30 21.28Q75.71 21.28 74.48 22.19Q73.26 23.11 73.26 25.34ZM87.59 34.92L82.19 34.92L82.19 16.56L87.59 16.56L87.59 34.92ZM87.77 14.11L82.01 14.11L82.01 8.28L87.77 8.28L87.77 14.11ZM98.71 34.92L93.31 34.92L93.31 15.34Q93.31 12.02 95.11 10.33Q96.91 8.64 100.44 8.64L100.44 8.64Q101.20 8.64 101.75 8.71Q102.31 8.78 102.85 8.96L102.85 8.96L102.85 13.10Q102.60 13.00 102.24 12.94Q101.88 12.89 101.38 12.89L101.38 12.89Q100.01 12.89 99.36 13.54Q98.71 14.18 98.71 15.41L98.71 15.41L98.71 34.92ZM102.46 20.66L90.25 20.66L90.25 16.56L102.46 16.56L102.46 20.66ZM114.23 35.32L114.23 35.32Q110.70 35.32 108.99 33.61Q107.28 31.90 107.28 28.40L107.28 28.40L107.28 12.46L112.68 10.44L112.68 28.58Q112.68 29.81 113.36 30.42Q114.05 31.03 115.49 31.03L115.49 31.03Q116.03 31.03 116.50 30.92Q116.96 30.82 117.43 30.67L117.43 30.67L117.43 34.78Q116.96 35.03 116.12 35.17Q115.27 35.32 114.23 35.32ZM117.43 20.66L103.86 20.66L103.86 16.56L117.43 16.56L117.43 20.66Z"/>
  <rect x="121.51200000000003" y="28.92" width="10" height="4" class="cursor"/>
</svg>